<svg xmlns="http://www.w3.org/2000/svg" viewBox="0 0 190 220" role="img" aria-label="Bachelor degree course shield">
<defs>
 <linearGradient id="face" x1="0" y1="0" x2="1" y2="1"><stop stop-color="#050607"/><stop offset=".36" stop-color="#1d1f21"/><stop offset=".55" stop-color="#050607"/><stop offset="1" stop-color="#111315"/></linearGradient>
 <linearGradient id="edge" x1="0" y1="0" x2="1" y2="1"><stop stop-color="#a94718"/><stop offset=".18" stop-color="#eeaa5f"/><stop offset=".42" stop-color="#fff4df"/><stop offset=".58" stop-color="#eeaa5f"/><stop offset=".82" stop-color="#a94718"/><stop offset="1" stop-color="#5d220a"/></linearGradient>
 <linearGradient id="metal" x1="0" y1="0" x2="0" y2="1"><stop stop-color="#fff"/><stop offset=".2" stop-color="#eeaa5f"/><stop offset=".48" stop-color="#fff5dd"/><stop offset=".72" stop-color="#a94718"/><stop offset="1" stop-color="#7b2f0d"/></linearGradient>
 <filter id="shadow" x="-30%" y="-30%" width="160%" height="170%"><feDropShadow dx="0" dy="7" stdDeviation="7" flood-color="#000" flood-opacity=".8"/><feDropShadow dx="0" dy="0" stdDeviation="5" flood-color="#eeaa5f" flood-opacity=".42"/></filter>
 <filter id="bevel"><feGaussianBlur in="SourceAlpha" stdDeviation="1.2" result="b"/><feSpecularLighting in="b" surfaceScale="4" specularConstant=".55" specularExponent="18" lighting-color="#fff" result="s"><feDistantLight azimuth="225" elevation="45"/></feSpecularLighting><feComposite in="s" in2="SourceAlpha" operator="in" result="si"/><feComposite in="SourceGraphic" in2="si" operator="arithmetic" k1="0" k2="1" k3=".55" k4="0"/></filter>
</defs>
<g filter="url(#shadow)">
 <path d="M95 6C119 27 145 34 176 39v61c0 56-29 95-81 119C43 195 14 156 14 100V39C45 34 71 27 95 6Z" fill="url(#edge)"/>
 <path d="M95 13C117 31 141 38 168 43v56c0 50-25 86-73 109-48-23-73-59-73-109V43c27-5 51-12 73-30Z" fill="url(#face)" stroke="#080808" stroke-width="2"/>
 <path d="M95 23C114 38 136 44 157 48v48c0 42-21 73-62 94-41-21-62-52-62-94V48c21-4 43-10 62-25Z" fill="none" stroke="url(#edge)" stroke-width="2.5" opacity=".92"/>
 <path d="M44 58h102M39 152h112" stroke="#fff" stroke-opacity=".08"/>
 <path d="M95,28.4 l5.427999999999999,16.651999999999997 h17.479999999999997 l-14.168,10.304 l5.427999999999999,16.651999999999997 l-14.168,-10.304 l-14.168,10.304 l5.427999999999999,-16.651999999999997 l-14.168,-10.304 h17.479999999999997 z" fill="url(#metal)"/><path d="M67,175.4 l5.427999999999999,16.651999999999997 h17.479999999999997 l-14.168,10.304 l5.427999999999999,16.651999999999997 l-14.168,-10.304 l-14.168,10.304 l5.427999999999999,-16.651999999999997 l-14.168,-10.304 h17.479999999999997 z" fill="url(#metal)"/><path d="M95,185.4 l5.427999999999999,16.651999999999997 h17.479999999999997 l-14.168,10.304 l5.427999999999999,16.651999999999997 l-14.168,-10.304 l-14.168,10.304 l5.427999999999999,-16.651999999999997 l-14.168,-10.304 h17.479999999999997 z" fill="url(#metal)"/><path d="M123,175.4 l5.427999999999999,16.651999999999997 h17.479999999999997 l-14.168,10.304 l5.427999999999999,16.651999999999997 l-14.168,-10.304 l-14.168,10.304 l5.427999999999999,-16.651999999999997 l-14.168,-10.304 h17.479999999999997 z" fill="url(#metal)"/>
 <text x="95" y="139" text-anchor="middle" font-family="Georgia, 'Times New Roman', serif" font-size="70" font-weight="900" fill="url(#metal)" stroke="#130904" stroke-width="1.2" paint-order="stroke" filter="url(#bevel)">B</text>
</g>
</svg>