<svg xmlns="http://www.w3.org/2000/svg" viewBox="0 0 720 720" role="img" aria-label="RefZone University basketball artwork"><defs><radialGradient id="ball" cx="32%" cy="25%" r="75%"><stop offset="0" stop-color="#db7934"/><stop offset=".36" stop-color="#9b451d"/><stop offset=".72" stop-color="#4a1e0e"/><stop offset="1" stop-color="#150906"/></radialGradient><pattern id="dots" width="8" height="8" patternUnits="userSpaceOnUse"><circle cx="2" cy="2" r="1.3" fill="#220d07" opacity=".6"/><circle cx="6" cy="6" r="1.1" fill="#f6a361" opacity=".18"/></pattern><filter id="shadow"><feDropShadow dx="12" dy="20" stdDeviation="26" flood-color="#000" flood-opacity=".75"/></filter><filter id="emboss"><feGaussianBlur in="SourceAlpha" stdDeviation="3" result="b"/><feSpecularLighting in="b" surfaceScale="5" specularConstant=".55" specularExponent="18" lighting-color="#f4b176" result="s"><feDistantLight azimuth="225" elevation="45"/></feSpecularLighting><feComposite in="s" in2="SourceAlpha" operator="in" result="s2"/><feComposite in="SourceGraphic" in2="s2" operator="arithmetic" k1="0" k2="1" k3="1" k4="0"/></filter></defs><g filter="url(#shadow)"><circle cx="360" cy="360" r="320" fill="url(#ball)" stroke="#1d0b05" stroke-width="16"/><circle cx="360" cy="360" r="312" fill="url(#dots)" opacity=".9"/><path d="M42 360h636M360 42c-82 95-122 200-122 318s40 223 122 318M360 42c82 95 122 200 122 318s-40 223-122 318M112 154c156 62 340 62 496 0M112 566c156-62 340-62 496 0" fill="none" stroke="#160a06" stroke-width="18"/><path d="M48 360h624M360 48c-76 92-112 196-112 312s36 220 112 312M360 48c76 92 112 196 112 312s-36 220-112 312" fill="none" stroke="#5b2814" stroke-width="5" opacity=".7"/><g transform="rotate(-8 360 360)" filter="url(#emboss)"><text x="360" y="330" text-anchor="middle" fill="#251007" stroke="#b96936" stroke-opacity=".22" stroke-width="2" font-family="Arial Black, Impact, sans-serif" font-size="92" font-style="italic" letter-spacing="2">REFZONE</text><text x="360" y="395" text-anchor="middle" fill="#251007" stroke="#b96936" stroke-opacity=".22" stroke-width="1.5" font-family="Arial Black, sans-serif" font-size="45" letter-spacing="9">UNIVERSITY</text></g></g></svg>